<svg width="12" height="11" viewBox="0 0 12 11" fill="none" xmlns="http://www.w3.org/2000/svg">
<path fill-rule="evenodd" clip-rule="evenodd" d="M5.6406 3.36601L5.66578 3.78123L5.2461 3.73039C3.71843 3.53549 2.38383 2.87451 1.25067 1.76442L0.696681 1.2136L0.553988 1.62036C0.251813 2.52708 0.444869 3.48464 1.0744 4.12867C1.41015 4.48458 1.33461 4.53542 0.755438 4.32357C0.553988 4.25578 0.377719 4.20493 0.360931 4.23036C0.302175 4.28967 0.503625 5.06081 0.663106 5.36588C0.881344 5.78958 1.32621 6.2048 1.81305 6.45055L2.22434 6.64545L1.73751 6.65393C1.26746 6.65393 1.25067 6.6624 1.30103 6.84036C1.46891 7.39117 2.13201 7.97587 2.87066 8.23009L3.39108 8.40805L2.93781 8.67922C2.26631 9.06902 1.4773 9.28935 0.688288 9.3063C0.310569 9.31477 0 9.34867 0 9.37409C0 9.45883 1.02404 9.93337 1.61999 10.1198C3.40786 10.6706 5.53148 10.4333 7.1263 9.49272C8.25945 8.82328 9.39261 7.49286 9.92142 6.2048C10.2068 5.51841 10.4922 4.26425 10.4922 3.6626C10.4922 3.27279 10.5174 3.22195 10.9874 2.75588C11.2644 2.48471 11.5246 2.18812 11.575 2.10338C11.6589 1.94237 11.6505 1.94237 11.2224 2.08643C10.509 2.34065 10.4083 2.30675 10.7608 1.92542C11.021 1.65425 11.3316 1.16276 11.3316 1.0187C11.3316 0.99328 11.2057 1.03565 11.063 1.11192C10.9119 1.19666 10.5761 1.32377 10.3243 1.40003L9.87105 1.54409L9.45976 1.26445C9.23313 1.11192 8.91417 0.942436 8.74629 0.891592C8.31821 0.772955 7.6635 0.789904 7.27738 0.925488C6.22816 1.30682 5.56506 2.28981 5.6406 3.36601Z" fill="white"/>
</svg>
