<svg width="14" height="13" viewBox="0 0 14 13" fill="none" xmlns="http://www.w3.org/2000/svg">
<path fill-rule="evenodd" clip-rule="evenodd" d="M13.4001 6.60341C13.4001 7.03623 13.356 7.46844 13.2695 7.88976C13.1851 8.30106 13.0601 8.70487 12.8963 9.09088C12.7363 9.47007 12.5379 9.83548 12.306 10.1762C12.0776 10.5149 11.8144 10.8325 11.5253 11.1221C11.2356 11.4105 10.9169 11.6729 10.5784 11.9023C10.2365 12.1326 9.87059 12.3307 9.49118 12.4915C9.10461 12.6544 8.69987 12.7792 8.28892 12.8634C7.86705 12.9502 7.43325 12.9945 6.99981 12.9945C6.56604 12.9945 6.13227 12.9502 5.711 12.8634C5.29942 12.7792 4.89471 12.6544 4.50844 12.4915C4.12905 12.3307 3.76277 12.1326 3.42088 11.9023C3.08243 11.6729 2.76366 11.4105 2.47458 11.1221C2.1852 10.8325 1.92205 10.5149 1.69329 10.1762C1.46265 9.83548 1.26388 9.47005 1.10326 9.09088C0.939478 8.70487 0.814177 8.30104 0.729482 7.88976C0.64386 7.46844 0.600098 7.03623 0.600098 6.60341C0.600098 6.17026 0.643835 5.73712 0.729507 5.31673C0.814202 4.90543 0.939503 4.501 1.10328 4.11561C1.2639 3.73614 1.46268 3.37041 1.69332 3.02962C1.92207 2.69073 2.18523 2.37365 2.47461 2.08373C2.76369 1.79537 3.08245 1.53357 3.42091 1.30452C3.76279 1.07327 4.12908 0.875129 4.50846 0.714088C4.89474 0.550846 5.29942 0.425726 5.71102 0.342103C6.13229 0.25598 6.56606 0.21228 6.99983 0.21228C7.43328 0.21228 7.86705 0.25598 8.28895 0.342103C8.6999 0.425751 9.10461 0.550871 9.49121 0.714088C9.87059 0.875104 10.2366 1.07327 10.5784 1.30452C10.9169 1.53357 11.2357 1.79537 11.5254 2.08373C11.8144 2.37365 12.0776 2.69073 12.306 3.02962C12.5379 3.37041 12.7363 3.73617 12.8963 4.11561C13.0601 4.501 13.1851 4.90543 13.2695 5.31673C13.356 5.73712 13.4001 6.17026 13.4001 6.60341ZM4.66779 1.66682C3.14363 2.38552 2.00607 3.78794 1.65136 5.47809C1.79545 5.47934 4.07307 5.50805 6.69726 4.81181C5.75128 3.13352 4.74061 1.76389 4.66779 1.66682ZM7.15009 5.65224C4.33589 6.49354 1.63543 6.433 1.53856 6.42928C1.53698 6.48794 1.53417 6.54472 1.53417 6.6034C1.53417 8.00549 2.06389 9.28371 2.93456 10.2502C2.93268 10.2474 4.4284 7.59764 7.37792 6.64522C7.44916 6.62151 7.52168 6.60027 7.59355 6.57969C7.45638 6.26951 7.30665 5.95869 7.15009 5.65224ZM10.6094 2.50722C9.6471 1.65994 8.38362 1.146 6.99979 1.146C6.5557 1.146 6.12474 1.19968 5.71191 1.29891C5.79377 1.40878 6.82041 2.76874 7.75513 4.48258C9.81744 3.71055 10.5959 2.52718 10.6094 2.50722ZM7.96612 7.48405C7.95394 7.48808 7.94177 7.49156 7.92987 7.49591C4.70507 8.6185 3.65196 10.8808 3.64057 10.9055C4.56845 11.6261 5.73226 12.0608 6.99983 12.0608C7.75672 12.0608 8.47769 11.9069 9.13366 11.6283C9.05272 11.1514 8.73521 9.48003 7.96612 7.48405ZM10.054 11.1296C11.2813 10.3026 12.1528 8.98948 12.396 7.46842C12.2835 7.43222 10.7543 6.94883 8.99018 7.23126C9.70709 9.19854 9.99838 10.8007 10.054 11.1296ZM8.17582 5.29584C8.30268 5.55611 8.42552 5.82101 8.53895 6.08723C8.57928 6.18274 8.61866 6.27637 8.65709 6.36997C10.5347 6.13404 12.3845 6.53098 12.4635 6.54719C12.451 5.25339 11.9876 4.06597 11.2207 3.13635C11.2104 3.15098 10.3338 4.41579 8.17582 5.29584Z" fill="white"/>
</svg>
