<svg width="14" height="14" viewBox="0 0 14 14" fill="none" xmlns="http://www.w3.org/2000/svg">
<path fill-rule="evenodd" clip-rule="evenodd" d="M7.0007 0.21228C5.26255 0.21228 5.04441 0.21988 4.36174 0.250947C3.6804 0.282148 3.21533 0.390015 2.80839 0.548284C2.38745 0.711752 2.03038 0.930421 1.67464 1.28629C1.31864 1.64203 1.09997 1.9991 0.935968 2.4199C0.7773 2.82697 0.669298 3.29218 0.638631 3.97325C0.608098 4.65593 0.600098 4.8742 0.600098 6.61235C0.600098 8.3505 0.607831 8.56797 0.638765 9.25064C0.670098 9.93198 0.777966 10.3971 0.936101 10.804C1.0997 11.2249 1.31837 11.582 1.67424 11.9377C2.02985 12.2937 2.38692 12.5129 2.80759 12.6764C3.21479 12.8347 3.68 12.9425 4.3612 12.9737C5.04388 13.0048 5.26188 13.0124 6.9999 13.0124C8.73818 13.0124 8.95565 13.0048 9.63833 12.9737C10.3197 12.9425 10.7853 12.8347 11.1925 12.6764C11.6133 12.5129 11.9698 12.2937 12.3254 11.9377C12.6814 11.582 12.9001 11.2249 13.0641 10.8041C13.2214 10.3971 13.3294 9.93185 13.3614 9.25077C13.3921 8.5681 13.4001 8.3505 13.4001 6.61235C13.4001 4.8742 13.3921 4.65606 13.3614 3.97339C13.3294 3.29205 13.2214 2.82697 13.0641 2.42004C12.9001 1.9991 12.6814 1.64203 12.3254 1.28629C11.9694 0.930288 11.6134 0.711619 11.1921 0.548284C10.7841 0.390015 10.3187 0.282148 9.63739 0.250947C8.95472 0.21988 8.73738 0.21228 6.9987 0.21228H7.0007ZM6.42653 1.36561C6.59693 1.36534 6.78707 1.36561 7.00067 1.36561C8.70949 1.36561 8.91202 1.37174 9.58683 1.40241C10.2108 1.43094 10.5495 1.53521 10.7751 1.62281C11.0738 1.73881 11.2867 1.87748 11.5106 2.10148C11.7346 2.32548 11.8733 2.53882 11.9895 2.83749C12.0771 3.06283 12.1815 3.4015 12.2099 4.0255C12.2406 4.70018 12.2473 4.90285 12.2473 6.61086C12.2473 8.31888 12.2406 8.52155 12.2099 9.19622C12.1814 9.82023 12.0771 10.1589 11.9895 10.3842C11.8735 10.6829 11.7346 10.8956 11.5106 11.1194C11.2866 11.3434 11.0739 11.4821 10.7751 11.5981C10.5498 11.6861 10.2108 11.7901 9.58683 11.8187C8.91216 11.8493 8.70949 11.856 7.00067 11.856C5.29172 11.856 5.08918 11.8493 4.41451 11.8187C3.7905 11.7899 3.45183 11.6856 3.2261 11.598C2.92743 11.482 2.71409 11.3433 2.49009 11.1193C2.26609 10.8953 2.12742 10.6825 2.01115 10.3837C1.92355 10.1584 1.81915 9.8197 1.79075 9.19569C1.76008 8.52102 1.75395 8.31835 1.75395 6.60926C1.75395 4.90018 1.76008 4.69858 1.79075 4.0239C1.81928 3.3999 1.92355 3.06123 2.01115 2.83562C2.12715 2.53695 2.26609 2.32362 2.49009 2.09962C2.71409 1.87561 2.92743 1.73694 3.2261 1.62068C3.4517 1.53268 3.7905 1.42867 4.41451 1.40001C5.00492 1.37334 5.23372 1.36534 6.42653 1.36401V1.36561ZM10.417 2.42829C9.99297 2.42829 9.64897 2.77189 9.64897 3.19603C9.64897 3.62003 9.99297 3.96404 10.417 3.96404C10.841 3.96404 11.185 3.62003 11.185 3.19603C11.185 2.77202 10.841 2.42829 10.417 2.42829ZM7.00071 3.32563C5.18562 3.32563 3.71401 4.79724 3.71401 6.61233C3.71401 8.42741 5.18562 9.89836 7.00071 9.89836C8.81579 9.89836 10.2869 8.42741 10.2869 6.61233C10.2869 4.79724 8.81579 3.32563 7.00071 3.32563ZM7.00068 4.47897C8.17883 4.47897 9.13404 5.43405 9.13404 6.61233C9.13404 7.79047 8.17883 8.74568 7.00068 8.74568C5.8224 8.74568 4.86733 7.79047 4.86733 6.61233C4.86733 5.43405 5.8224 4.47897 7.00068 4.47897Z" fill="white"/>
</svg>
