<svg width="14" height="10" viewBox="0 0 14 10" fill="none" xmlns="http://www.w3.org/2000/svg">
<path fill-rule="evenodd" clip-rule="evenodd" d="M12.0009 0.486945C12.5517 0.638077 12.9854 1.08339 13.1326 1.64889C13.4001 2.6738 13.4001 4.81228 13.4001 4.81228C13.4001 4.81228 13.4001 6.95069 13.1326 7.97567C12.9854 8.54117 12.5517 8.98648 12.0009 9.13769C11.0028 9.41228 7.0001 9.41228 7.0001 9.41228C7.0001 9.41228 2.99741 9.41228 1.99923 9.13769C1.44846 8.98648 1.01472 8.54117 0.867516 7.97567C0.600098 6.95069 0.600098 4.81228 0.600098 4.81228C0.600098 4.81228 0.600098 2.6738 0.867516 1.64889C1.01472 1.08339 1.44846 0.638077 1.99923 0.486945C2.99741 0.21228 7.0001 0.21228 7.0001 0.21228C7.0001 0.21228 11.0028 0.21228 12.0009 0.486945ZM5.80011 3.01224V7.01224L9.00011 5.01231L5.80011 3.01224Z" fill="white"/>
</svg>
